<?xml version="1.0" encoding="UTF-8" standalone="no"?>
<!DOCTYPE svg PUBLIC "-//W3C//DTD SVG 1.1//EN" "http://www.w3.org/Graphics/SVG/1.1/DTD/svg11.dtd">
<svg version="1.1" xmlns="http://www.w3.org/2000/svg" xmlns:xlink="http://www.w3.org/1999/xlink" preserveAspectRatio="xMidYMid meet" viewBox="0 0 300 215" width="300" height="215"><defs><path d="M172.12 123.46C148.8 124.24 109.16 126.56 86.62 121.9C64.08 117.24 46.19 115.68 36.87 116.46C35.87 116.54 34.97 116.57 34.12 116.56C36.57 129.25 38.39 141.99 46.99 142.12C65.94 142.4 97.53 147.21 114.62 147.56C128.63 147.84 179.12 146.79 204.77 142.9C219.55 140.66 260.73 127.14 262.27 123.46C266.79 112.68 266.17 113.37 263.84 107.93C262.91 105.77 263.3 102.6 263.02 99.21C249.5 105.98 193.75 122.74 172.12 123.46Z" id="c2mQyFFsUq"></path><linearGradient id="gradiente13na1yQuS" gradientUnits="userSpaceOnUse" x1="33.62" y1="123.41" x2="266.13" y2="123.41"><stop style="stop-color: #535353;stop-opacity: 1" offset="0%"></stop><stop style="stop-color: #141414;stop-opacity: 1" offset="100%"></stop></linearGradient><path d="M278.74 35.37C278.37 36.03 277.82 36.65 277.15 37.24C276.48 37.83 275.66 38.4 274.74 38.93C273.82 39.46 272.79 39.96 271.65 40.43C269.36 41.37 266.68 42.2 263.74 42.93C260.8 43.66 257.61 44.31 254.3 44.87C247.7 45.99 240.65 46.78 234.34 47.4C228.02 48.02 222.43 48.45 218.74 48.84C215.05 49.23 210.64 50.05 205.62 51.18C200.59 52.31 194.96 53.77 188.84 55.37C182.71 56.97 176.09 58.75 169.12 60.56C162.15 62.37 154.82 64.21 147.24 65.96C143.45 66.84 139.23 67.54 134.71 68.12C130.19 68.7 125.36 69.15 120.37 69.49C115.37 69.84 110.22 70.08 105.02 70.24C99.82 70.41 94.57 70.51 89.43 70.56C79.15 70.64 69.24 70.53 60.77 70.46C52.31 70.4 45.3 70.38 40.77 70.62C38.93 70.72 37 70.67 35.09 70.52C33.17 70.38 31.27 70.13 29.4 69.74C27.52 69.35 25.69 68.84 23.96 68.21C22.23 67.58 20.57 66.84 19.09 65.96C17.6 65.09 16.3 64.08 15.18 62.96C14.05 61.84 13.12 60.6 12.46 59.24C11.8 57.88 11.4 56.41 11.3 54.81C11.22 53.32 11.47 51.69 11.96 49.99C8.23 55.11 5.35 61.1 6.55 66.71C11.69 90.63 22.13 94.79 24.43 111.02C24.77 113.46 27.54 117.24 36.87 116.46C46.19 115.68 64.08 117.24 86.62 121.9C109.16 126.56 148.8 124.24 172.12 123.46C195.43 122.68 258.4 103.25 265.4 97.81C272.39 92.37 276.26 84.6 280.15 74.49C284.03 64.39 287.92 46.51 280.93 37.18C280.13 36.11 279.59 35.56 278.93 34.74C278.84 34.95 278.86 35.17 278.74 35.37Z" id="o91SRsho52"></path><linearGradient id="gradientb32VnXsNUB" gradientUnits="userSpaceOnUse" x1="5.78" y1="79.74" x2="285.3" y2="79.74"><stop style="stop-color: #ffffff;stop-opacity: 1" offset="0%"></stop><stop style="stop-color: #b4b4b4;stop-opacity: 1" offset="100%"></stop></linearGradient><path d="M130.93 10.77C113.32 17.11 56.3 13.87 24.43 37.96C23.54 37.96 16.96 43.15 11.96 49.99C11.47 51.69 11.22 53.32 11.3 54.81C11.4 56.41 11.8 57.88 12.46 59.24C13.12 60.6 14.05 61.84 15.18 62.96C16.3 64.08 17.6 65.09 19.09 65.96C20.57 66.84 22.23 67.58 23.96 68.21C25.69 68.84 27.52 69.35 29.4 69.74C31.27 70.13 33.17 70.38 35.09 70.52C37 70.67 38.93 70.72 40.77 70.62C45.3 70.38 52.31 70.4 60.77 70.46C69.24 70.53 79.15 70.64 89.43 70.56C94.57 70.51 99.82 70.41 105.02 70.24C110.22 70.08 115.37 69.84 120.37 69.49C125.36 69.15 130.19 68.7 134.71 68.12C139.23 67.54 143.45 66.84 147.24 65.96C154.82 64.21 162.15 62.37 169.12 60.56C176.09 58.75 182.71 56.97 188.84 55.37C194.96 53.77 200.59 52.31 205.62 51.18C210.64 50.05 215.05 49.23 218.74 48.84C222.43 48.45 228.02 48.02 234.34 47.4C240.65 46.78 247.7 45.99 254.3 44.87C257.61 44.31 260.8 43.66 263.74 42.93C266.68 42.2 269.36 41.37 271.65 40.43C272.79 39.96 273.82 39.46 274.74 38.93C275.66 38.4 276.48 37.83 277.15 37.24C277.82 36.65 278.37 36.03 278.74 35.37C278.86 35.17 278.84 34.95 278.93 34.74C273.86 28.44 271.78 28.25 255.27 19.31C241.28 11.73 189.26 6.8 155.93 7.74C144.82 8.06 135.79 9.03 130.93 10.77Z" id="dfIlSHYyL"></path><linearGradient id="gradientc7kiN9GKTc" gradientUnits="userSpaceOnUse" x1="10.79" y1="39.15" x2="279.43" y2="39.15"><stop style="stop-color: #ffffff;stop-opacity: 1" offset="0%"></stop><stop style="stop-color: #dfdfdf;stop-opacity: 1" offset="100%"></stop></linearGradient><path d="M262.27 123.46C260.73 127.14 219.55 140.66 204.77 142.9C179.12 146.79 128.63 147.84 114.62 147.56C103.88 147.34 87.44 145.35 71.99 143.84C86.78 162.47 112.32 187.22 125.49 192.65C138.7 198.09 171.28 207.4 199.3 207.4C228.84 207.4 271.39 194.11 280.93 185.65C288.07 179.32 294.91 163.88 284.8 148.34C275.9 134.63 270.63 125.75 263.65 120.12C263.25 121.1 262.81 122.19 262.27 123.46Z" id="az6bdiqZb"></path><linearGradient id="gradientaIYyXYbbR" gradientUnits="userSpaceOnUse" x1="103.37" y1="223.29" x2="290.41" y2="115.77"><stop style="stop-color: #000000;stop-opacity: 1" offset="0%"></stop><stop style="stop-color: #6d6d6d;stop-opacity: 1" offset="70.816833%"></stop><stop style="stop-color: #000000;stop-opacity: 1" offset="100%"></stop></linearGradient><path d="M214.87 58.96C200.1 62.07 206.61 58.42 198.74 64.09C191.61 69.23 193.12 73.72 193.12 87.71C193.12 101.37 193.8 99.64 188.77 121.24C207.01 117.78 231.13 110.9 247.55 105.24C248.87 97.31 246.5 88.82 247.18 81.37C247.96 72.82 250.9 58.27 242.84 55.4C240.6 54.6 238.66 54.21 236.77 54.15C231.11 53.98 225.94 56.63 214.87 58.96Z" id="b1hJIoVXYT"></path><linearGradient id="gradienta1vtwu6atU" gradientUnits="userSpaceOnUse" x1="188.27" y1="87.69" x2="248.85" y2="87.69"><stop style="stop-color: #777777;stop-opacity: 1" offset="0%"></stop><stop style="stop-color: #252525;stop-opacity: 1" offset="100%"></stop></linearGradient><path d="M237.86 63.03C237.65 66.32 237.53 68.15 237.51 68.52C235.03 68.26 232.67 68.21 230.45 68.38C228.22 68.56 226.06 68.96 223.96 69.58C220.31 70.67 217.45 72.11 215.38 73.89C213.33 75.67 212.24 77.65 212.1 79.85C211.98 81.69 212.54 82.88 213.79 83.44C215.06 83.97 217.51 83.98 221.14 83.46C221.55 83.41 224.75 83 225.15 82.95C230.1 82.26 233.69 82.57 235.93 83.89C238.19 85.18 239.21 87.52 239 90.9C238.74 94.93 236.93 98.47 233.56 101.51C230.22 104.55 225.44 107 219.22 108.85C216.87 109.55 214.39 110.08 211.76 110.42C209.16 110.76 206.47 110.92 203.69 110.89C203.73 110.31 204.02 105.67 204.06 105.1C206.7 105.57 209.31 105.74 211.87 105.61C214.44 105.48 216.99 105.04 219.51 104.28C223.34 103.14 226.34 101.63 228.5 99.74C230.66 97.86 231.82 95.75 231.97 93.41C232.1 91.36 231.45 89.99 230.02 89.29C228.61 88.58 226.22 88.44 222.85 88.88C222.44 88.94 219.21 89.38 218.81 89.43C213.86 90.09 210.33 89.86 208.21 88.74C206.09 87.63 205.13 85.48 205.33 82.3C205.57 78.62 207.29 75.27 210.5 72.23C213.74 69.19 218.07 66.86 223.49 65.24C225.81 64.55 228.17 64.02 230.56 63.65C232.95 63.28 235.38 63.08 237.86 63.03" id="eoyJ4SW4I"></path><path d="M46.49 102.02C45.48 99.98 45.73 97.71 47.06 96.95C47.06 96.95 47.07 96.95 47.07 96.95C48.4 96.19 50.29 97.22 51.31 99.26C52.32 101.3 52.06 103.57 50.73 104.33C50.73 104.33 50.72 104.33 50.72 104.33C49.39 105.09 47.5 104.05 46.49 102.02Z" id="cgP2xrxcM"></path></defs><g><g><g><use xlink:href="#c2mQyFFsUq" opacity="1" fill="url(#gradiente13na1yQuS)"></use><g><use xlink:href="#c2mQyFFsUq" opacity="1" fill-opacity="0" stroke="#000000" stroke-width="1" stroke-opacity="1"></use></g></g><g><use xlink:href="#o91SRsho52" opacity="1" fill="url(#gradientb32VnXsNUB)"></use><g><use xlink:href="#o91SRsho52" opacity="1" fill-opacity="0" stroke="#000000" stroke-width="1" stroke-opacity="1"></use></g></g><g><use xlink:href="#dfIlSHYyL" opacity="1" fill="url(#gradientc7kiN9GKTc)"></use><g><use xlink:href="#dfIlSHYyL" opacity="1" fill-opacity="0" stroke="#000000" stroke-width="1" stroke-opacity="1"></use></g></g><g><use xlink:href="#az6bdiqZb" opacity="1" fill="url(#gradientaIYyXYbbR)"></use><g><use xlink:href="#az6bdiqZb" opacity="1" fill-opacity="0" stroke="#000000" stroke-width="1" stroke-opacity="1"></use></g></g><g><use xlink:href="#b1hJIoVXYT" opacity="1" fill="url(#gradienta1vtwu6atU)"></use><g><use xlink:href="#b1hJIoVXYT" opacity="1" fill-opacity="0" stroke="#000000" stroke-width="1" stroke-opacity="1"></use></g></g><g><use xlink:href="#eoyJ4SW4I" opacity="1" fill="#ffff00" fill-opacity="1"></use><g><use xlink:href="#eoyJ4SW4I" opacity="1" fill-opacity="0" stroke="#000000" stroke-width="1" stroke-opacity="0"></use></g></g><g><use xlink:href="#cgP2xrxcM" opacity="1" fill="#ffffff" fill-opacity="1"></use><g><use xlink:href="#cgP2xrxcM" opacity="1" fill-opacity="0" stroke="#000000" stroke-width="3.45" stroke-opacity="1"></use></g></g></g></g></svg>